# Blender v2.91.0 OBJ File: ''
# www.blender.org
mtllib block.mtl
o Cube
v 0.500000 0.500000 -0.500000
v 0.500000 -0.500000 -0.500000
v 0.500000 0.500000 0.500000
v 0.500000 -0.500000 0.500000
v -0.500000 0.500000 -0.500000
v -0.500000 -0.500000 -0.500000
v -0.500000 0.500000 0.500000
v -0.500000 -0.500000 0.500000
vt 0.995755 0.994737
vt 0.008019 0.013158
vt 0.994811 0.002632
vt 0.994811 0.992105
vt 0.001415 0.007895
vt 0.995755 0.018421
vt 0.992924 0.992105
vt 0.003302 0.007895
vt 0.995755 0.007895
vt 0.995755 0.989474
vt 0.008019 0.005263
vt 0.996698 0.005263
vt 0.997889 0.992930
vt 0.003608 0.000162
vt 0.999478 0.004982
vt 1.000472 1.000000
vt 0.001415 0.002632
vt 0.995755 0.007895
vt 0.007076 1.000000
vt 0.006132 1.005263
vt 0.006132 1.000000
vt 0.010849 0.992105
vt 0.003518 1.002731
vt 0.000472 1.002632
vn 0.0000 1.0000 0.0000
vn 0.0000 0.0000 1.0000
vn -1.0000 0.0000 0.0000
vn 0.0000 -1.0000 0.0000
vn 1.0000 0.0000 0.0000
vn 0.0000 0.0000 -1.0000
usemtl Material
s off
f 5/1/1 3/2/1 1/3/1
f 3/4/2 8/5/2 4/6/2
f 7/7/3 6/8/3 8/9/3
f 2/10/4 8/11/4 6/12/4
f 1/13/5 4/14/5 2/15/5
f 5/16/6 2/17/6 6/18/6
f 5/1/1 7/19/1 3/2/1
f 3/4/2 7/20/2 8/5/2
f 7/7/3 5/21/3 6/8/3
f 2/10/4 4/22/4 8/11/4
f 1/13/5 3/23/5 4/14/5
f 5/16/6 1/24/6 2/17/6
